{"glyphs":{"0":{"ha":750,"x_min":35,"x_max":717,"o":"m 440 763 q 372 768 418 768 q 155 666 238 767 q 61 388 72 565 q 60 328 60 367 q 144 13 60 131 q 375 -104 229 -104 q 553 -42 479 -104 q 663 135 628 19 q 683 220 679 188 q 686 332 686 253 q 679 464 686 428 q 440 763 625 722 m 328 793 q 365 796 347 796 q 460 785 422 796 q 699 494 646 733 q 717 333 717 408 q 644 26 717 151 q 589 -44 625 -8 q 521 -96 553 -79 q 375 -131 453 -131 q 292 -121 329 -131 q 144 -27 206 -97 q 54 147 82 43 q 35 335 35 224 q 58 532 35 453 q 161 712 92 644 q 328 793 231 779 m 396 532 q 374 542 386 542 q 332 496 347 542 q 315 322 315 449 q 374 126 315 126 q 385 128 381 126 q 433 318 433 144 l 433 360 q 396 532 429 503 m 268 696 q 374 719 314 719 q 518 671 460 719 q 631 451 604 601 q 640 326 640 393 q 635 243 640 290 q 548 22 617 100 q 376 -57 479 -57 q 342 -54 364 -57 q 170 62 232 -40 q 108 329 108 164 q 151 562 108 465 q 268 696 193 658 z "},"1":{"ha":579,"x_min":38,"x_max":549,"o":"m 521 549 l 519 740 l 274 740 l 175 672 q 72 597 72 601 q 114 479 72 582 q 163 361 160 364 q 167 360 165 360 q 185 363 172 360 q 208 371 197 367 l 218 375 q 224 132 224 375 l 225 -111 l 518 -111 l 521 122 q 522 228 521 153 q 522 344 522 304 q 522 456 522 386 q 521 549 521 525 m 186 713 l 261 764 l 406 765 l 549 765 l 549 -137 q 374 -136 490 -136 q 199 -135 257 -136 l 199 100 q 193 336 199 335 q 171 332 188 339 q 150 326 153 326 q 143 338 147 326 l 117 403 q 63 534 89 469 q 38 603 38 599 q 75 635 38 610 q 102 653 85 640 q 146 684 119 665 q 186 713 172 703 m 208 636 l 289 692 l 381 693 l 472 693 l 472 -60 l 271 -60 l 271 446 l 235 433 q 193 424 199 421 q 176 458 192 424 q 145 530 161 492 q 129 575 129 568 q 208 636 129 581 z "},"2":{"ha":765,"x_min":38,"x_max":731,"o":"m 454 743 q 361 751 425 751 q 313 749 338 751 q 110 663 218 733 q 71 628 71 638 q 98 556 71 621 q 152 429 125 490 q 181 368 179 368 l 182 368 q 213 392 186 368 q 276 439 240 415 q 339 463 313 463 q 350 461 346 463 q 360 444 360 460 q 347 406 360 431 q 169 190 311 336 l 97 117 l 97 -108 l 703 -108 q 697 -81 700 -99 q 689 -28 694 -64 q 678 39 683 7 q 653 172 663 132 q 643 179 650 178 q 599 181 636 181 q 549 183 549 181 q 571 213 549 185 q 672 461 672 342 q 663 533 672 492 q 587 665 643 608 q 454 743 531 722 m 174 731 q 369 776 267 776 q 551 728 476 776 q 665 597 626 679 q 696 456 696 535 q 685 363 696 397 q 622 240 665 303 q 601 207 601 213 q 639 206 601 206 l 676 206 l 704 36 q 728 -135 731 -133 q 397 -136 726 -136 l 72 -135 q 71 -5 72 -92 q 69 125 69 82 l 129 186 q 321 411 289 350 q 329 435 332 435 q 321 433 328 436 q 236 377 299 429 q 171 325 174 325 l 169 325 q 64 575 167 328 q 38 642 38 639 q 91 681 38 646 q 174 731 144 717 m 328 700 q 372 703 343 703 q 551 631 482 703 q 621 458 621 560 q 592 336 621 399 q 475 183 560 269 q 431 132 431 139 q 522 129 431 129 l 613 129 l 626 39 q 642 -56 642 -50 q 394 -60 642 -60 l 146 -60 l 146 97 l 219 172 q 338 299 303 257 q 394 386 372 342 q 410 443 410 417 q 399 483 410 467 q 339 511 381 511 l 329 511 q 225 465 279 510 q 199 450 203 446 q 163 532 196 453 q 131 614 131 611 q 162 637 131 617 q 217 668 193 657 q 328 700 261 690 z "},"3":{"ha":718,"x_min":38,"x_max":682,"o":"m 436 761 q 315 772 399 772 q 289 771 294 772 q 249 763 281 769 q 204 751 218 756 q 149 728 185 744 q 103 703 114 711 q 100 696 100 700 q 129 592 100 683 l 161 485 l 168 357 q 174 229 174 240 q 168 224 172 222 q 156 229 164 225 q 147 233 149 233 q 104 111 142 233 q 68 -14 68 -10 q 154 -65 68 -18 q 336 -103 235 -103 q 444 -90 392 -103 q 561 -32 510 -74 q 656 175 656 46 q 600 342 656 274 q 586 369 582 364 q 638 522 638 442 q 626 596 638 556 q 436 761 588 722 m 261 793 q 322 797 283 797 q 428 789 392 797 q 571 722 511 771 q 653 601 631 674 q 661 521 661 574 q 650 439 661 469 q 628 386 638 401 l 615 365 l 629 347 q 682 175 682 274 q 654 46 682 106 q 414 -124 590 -89 q 360 -129 390 -129 q 341 -128 354 -129 q 319 -128 328 -128 q 154 -93 235 -126 q 83 -54 129 -83 q 38 -19 38 -25 l 126 271 q 133 270 128 272 q 142 268 138 268 q 146 275 146 268 q 142 375 146 306 l 136 476 l 100 594 q 71 703 71 693 q 72 713 71 708 q 76 719 74 717 q 85 726 79 722 q 95 733 90 731 q 111 740 100 735 q 129 749 122 744 q 261 793 193 782 m 169 683 q 336 722 232 722 q 425 713 385 722 q 544 644 503 693 q 586 522 586 594 l 586 511 q 569 442 585 472 q 531 385 556 413 l 507 360 l 531 342 q 606 175 606 282 q 583 75 606 119 q 488 -19 554 15 q 339 -54 422 -54 q 296 -51 324 -54 q 125 10 185 -40 l 149 86 l 172 164 q 201 151 185 160 q 321 124 263 124 q 379 133 360 124 q 408 172 408 147 q 404 193 408 183 q 353 236 393 218 q 263 257 314 254 l 225 258 l 224 274 q 218 388 218 296 q 221 417 218 415 q 260 424 224 418 q 351 458 313 435 q 390 503 390 481 q 378 528 390 515 q 351 547 367 542 q 315 553 336 553 q 239 532 278 553 q 222 524 231 528 q 208 517 214 519 l 203 515 q 180 589 201 518 q 157 667 158 660 q 169 683 156 675 m 171 210 q 192 211 179 211 q 350 186 275 211 l 396 169 l 360 169 q 297 174 339 169 q 225 191 279 176 q 171 210 171 206 z "},"4":{"ha":753,"x_min":32,"x_max":721,"o":"m 631 699 l 629 743 l 525 744 l 421 744 l 390 706 q 210 474 324 622 l 60 279 l 60 44 q 198 43 106 44 q 336 42 290 42 l 338 -36 l 338 -112 l 485 -112 l 629 -111 q 631 -34 631 -86 q 632 44 631 18 l 696 44 l 694 190 l 694 336 q 663 338 683 336 q 632 339 642 339 l 632 496 q 631 621 632 547 q 631 699 631 694 m 396 754 l 411 774 l 656 774 q 657 569 656 706 q 658 364 658 432 l 689 363 l 721 363 l 721 17 l 656 17 l 656 -140 l 314 -140 l 314 17 l 174 17 l 33 18 l 33 151 l 32 285 l 101 375 q 148 435 118 396 q 216 524 178 474 q 275 600 254 574 q 328 669 300 632 q 375 728 357 706 q 396 754 393 750 m 390 326 q 388 358 390 358 q 360 326 383 358 q 336 289 336 294 q 356 285 336 285 q 385 290 379 285 q 390 326 390 296 m 426 671 l 447 696 l 579 696 q 581 492 581 628 q 582 288 581 356 l 613 286 l 644 286 l 644 93 q 614 92 635 92 q 582 90 593 92 q 581 14 581 65 q 579 -64 581 -37 l 483 -64 l 389 -62 q 388 16 389 -36 q 386 93 386 68 l 108 93 l 108 261 l 258 453 q 426 671 403 642 z "},"5":{"ha":724,"x_min":38,"x_max":689,"o":"m 308 197 q 272 200 300 200 q 251 199 251 200 q 290 190 251 190 q 306 192 301 190 q 315 194 315 194 q 308 197 315 194 m 622 714 l 622 753 l 369 753 q 114 751 115 753 l 114 701 q 117 231 114 233 q 172 227 119 228 q 281 224 224 226 q 350 217 338 222 q 353 185 376 204 q 292 165 329 165 q 208 185 258 165 q 164 199 174 199 l 163 199 q 115 78 160 196 q 71 -43 71 -39 q 108 -62 71 -46 q 176 -87 146 -78 q 308 -108 247 -108 q 524 -50 431 -108 q 649 103 617 8 q 660 201 660 138 q 655 285 660 258 q 632 349 650 313 q 556 444 604 406 l 524 469 l 574 471 l 624 474 l 624 574 q 622 714 624 692 m 650 447 q 615 443 617 443 l 599 443 l 618 418 q 679 296 661 363 q 689 201 689 257 q 681 119 689 149 q 575 -46 656 21 q 381 -129 494 -112 q 319 -133 356 -133 q 190 -119 246 -133 q 100 -88 163 -111 q 38 -61 38 -65 q 85 71 38 -51 l 135 199 l 111 201 l 89 203 q 88 490 89 299 q 86 776 86 681 l 650 776 l 650 447 m 163 279 l 163 704 l 574 704 l 574 519 l 511 519 q 396 517 451 519 l 344 514 l 344 468 l 376 463 q 604 286 560 433 q 614 201 614 250 q 608 144 614 175 q 536 18 592 68 q 390 -51 481 -32 q 308 -58 356 -58 q 238 -53 271 -58 q 136 -18 136 -29 q 161 58 136 -11 q 192 133 186 128 q 224 126 194 136 q 285 118 249 118 q 363 132 335 118 q 413 203 413 156 q 380 259 413 244 q 247 276 347 274 l 163 279 z "},"6":{"ha":725,"x_min":35,"x_max":689,"o":"m 465 761 q 431 797 435 797 q 381 767 425 797 q 306 711 336 736 q 190 587 244 660 q 106 443 136 514 q 60 231 60 335 q 100 56 60 133 q 204 -54 136 -12 q 363 -96 272 -96 l 379 -96 q 576 -10 496 -90 q 644 85 624 38 q 664 211 664 132 q 635 357 664 296 q 508 488 596 440 q 488 503 488 499 q 546 550 488 510 q 572 567 557 557 q 593 583 586 578 l 600 588 q 574 625 600 596 q 519 693 549 651 q 490 731 511 704 q 465 761 468 757 m 386 801 q 436 832 432 832 q 532 718 447 829 q 604 629 561 678 q 639 585 639 589 q 610 563 639 582 q 581 542 601 556 q 556 525 560 528 l 531 507 l 553 490 q 661 363 625 442 q 684 297 679 324 q 689 214 689 269 q 683 124 689 156 q 656 53 676 93 q 596 -29 633 10 q 361 -124 506 -124 q 240 -103 299 -124 q 154 -50 197 -86 q 88 26 111 -14 q 35 233 35 119 q 144 568 35 406 q 386 801 236 703 m 382 272 q 336 281 365 281 q 314 278 325 281 q 303 272 304 275 q 301 254 301 269 q 301 249 301 251 q 322 171 301 201 q 375 140 343 140 q 408 154 393 140 q 433 204 433 178 q 382 272 433 247 m 374 701 q 421 733 415 733 q 457 692 425 733 q 507 626 500 633 q 526 600 526 601 q 489 572 526 597 q 415 510 456 550 l 379 474 l 393 471 q 403 469 397 471 q 418 466 410 468 q 431 463 426 464 q 543 399 492 450 q 608 283 594 347 q 614 211 614 260 q 608 143 614 165 q 551 32 590 75 q 363 -47 481 -47 q 168 42 236 -47 q 111 232 111 119 q 131 365 111 296 q 219 543 158 456 q 374 701 288 636 z "},"7":{"ha":714,"x_min":36,"x_max":678,"o":"m 651 756 l 651 765 l 64 765 l 64 483 l 185 483 q 306 479 306 483 q 278 388 306 476 q 122 -101 122 -92 q 365 -111 122 -111 q 399 -110 399 -111 q 428 -35 404 -104 q 549 294 450 31 l 643 551 l 649 650 q 649 699 649 672 q 651 739 650 725 q 651 756 651 753 m 39 790 q 360 792 40 792 l 678 792 l 676 733 q 674 671 675 717 q 672 610 672 625 l 669 546 l 640 469 q 515 129 526 157 q 415 -137 419 -133 q 389 -139 414 -139 q 206 -135 326 -139 q 86 -128 86 -131 q 240 357 86 -108 q 271 458 271 454 l 36 458 l 36 624 q 39 790 36 788 m 115 533 q 114 625 114 564 q 113 717 114 686 l 601 717 q 599 641 600 692 q 596 565 597 590 l 533 397 q 417 82 493 289 l 364 -62 l 290 -61 q 252 -60 275 -61 q 217 -59 229 -60 q 200 -58 204 -58 l 186 -56 l 197 -21 q 276 217 214 26 q 343 425 338 407 q 374 526 374 525 q 244 532 374 532 l 115 533 z "},"8":{"ha":746,"x_min":36,"x_max":710,"o":"m 460 753 q 383 765 426 764 q 366 766 378 765 q 350 767 354 767 q 338 767 344 767 l 331 765 q 90 556 131 729 q 85 499 85 529 q 111 381 85 435 l 125 349 l 111 328 q 67 225 81 288 q 61 168 61 199 q 109 13 61 83 q 239 -87 157 -57 q 374 -110 297 -110 q 522 -81 458 -110 q 636 13 593 -49 q 685 151 679 74 l 685 168 q 638 329 685 268 q 628 341 633 335 q 620 350 622 347 q 618 357 618 353 q 629 388 618 361 q 651 492 651 433 q 564 693 651 614 q 460 753 519 733 m 296 785 q 375 792 331 792 q 440 786 418 792 q 643 631 574 757 q 675 493 675 572 q 663 403 675 440 l 649 361 l 661 343 q 710 174 710 271 q 682 43 710 106 q 570 -83 646 -36 q 394 -135 494 -129 l 372 -135 q 137 -55 232 -135 q 38 157 42 25 q 37 174 38 164 q 36 189 36 185 q 42 236 36 215 q 86 340 51 286 q 90 351 90 346 q 81 383 90 358 q 60 501 60 438 q 126 684 61 606 q 296 785 190 763 m 429 201 q 407 228 424 217 q 369 239 390 239 q 340 232 353 239 q 313 175 313 218 q 315 147 313 153 q 328 131 317 140 q 356 118 340 118 l 372 118 q 413 128 401 119 q 431 160 424 136 q 429 201 438 185 m 385 528 q 344 528 364 536 q 321 494 322 518 q 331 463 321 481 q 356 438 342 444 q 382 439 368 431 q 415 488 415 458 q 385 528 415 515 m 303 708 q 374 715 331 715 q 433 710 415 715 q 535 649 489 694 q 601 493 601 583 q 558 369 601 421 l 546 354 l 565 336 q 626 242 607 300 q 635 172 635 215 q 629 118 635 139 q 469 -46 599 -3 q 375 -57 436 -57 q 286 -50 313 -57 q 176 13 218 -29 q 113 171 113 75 q 171 322 113 258 l 192 346 l 175 371 q 135 494 135 429 q 143 558 135 522 q 201 652 157 611 q 303 708 244 693 z "},"9":{"ha":733,"x_min":36,"x_max":696,"o":"m 435 771 q 364 775 414 775 q 187 721 261 774 q 79 571 113 668 q 67 528 69 542 q 65 465 65 514 q 75 368 65 399 q 208 197 111 253 q 223 191 211 196 q 240 183 235 186 q 246 175 246 179 q 161 110 246 167 q 136 89 136 92 q 213 -19 136 78 q 239 -54 219 -29 q 265 -89 258 -79 q 293 -125 292 -125 q 340 -97 299 -125 q 407 -47 381 -68 q 656 322 594 101 q 667 443 667 360 q 656 560 667 525 q 573 699 629 644 q 435 771 517 753 m 315 800 q 360 803 343 803 q 507 774 447 803 q 696 467 685 693 l 696 443 q 549 57 696 243 q 413 -76 492 -15 q 341 -126 393 -92 q 286 -161 289 -161 q 251 -115 285 -161 q 193 -36 229 -83 q 133 45 165 -1 q 100 96 100 92 q 147 132 100 100 q 196 169 193 163 q 192 176 197 171 q 179 185 188 181 q 74 304 111 231 q 36 463 36 378 q 74 625 36 547 q 315 800 147 775 m 378 519 q 356 526 364 526 q 326 510 342 526 q 308 485 311 494 q 308 481 308 483 q 307 478 307 479 q 333 431 307 453 q 389 408 358 408 q 410 412 406 408 q 414 429 414 415 l 414 446 q 378 519 410 504 m 311 722 q 360 726 329 726 q 443 718 417 726 q 574 622 528 693 q 621 444 619 550 q 543 184 621 317 q 339 -36 465 51 q 307 -56 313 -56 q 281 -26 303 -56 q 256 6 274 -18 q 232 39 239 29 q 204 78 204 74 l 232 99 q 303 158 261 118 q 346 204 346 197 q 311 211 346 206 q 193 272 243 225 q 122 386 143 318 q 114 467 114 414 q 121 538 114 510 q 190 658 140 610 q 311 722 239 706 z "},"\u0000":{"ha":292,"x_min":0,"x_max":0,"o":""},"\r":{"ha":292,"x_min":0,"x_max":0,"o":""}," ":{"ha":292,"x_min":0,"x_max":0,"o":""},"!":{"ha":458,"x_min":36,"x_max":422,"o":"m 388 813 l 390 850 l 68 850 l 69 822 q 86 504 69 821 l 100 214 l 89 196 q 64 99 64 157 q 79 24 64 58 q 229 -72 124 -72 l 242 -72 q 353 -19 310 -69 q 397 97 397 31 q 375 186 397 143 l 360 215 l 368 371 q 378 592 374 483 q 384 749 382 701 q 388 813 386 796 m 44 854 l 44 874 l 418 874 l 417 843 q 403 569 414 814 q 390 294 392 324 l 386 221 l 397 204 q 422 97 422 161 q 414 35 422 64 q 343 -62 394 -25 q 231 -100 292 -100 q 197 -97 219 -100 q 81 -28 125 -83 q 36 97 36 26 q 58 193 36 147 l 74 224 l 58 529 q 44 854 44 810 m 149 247 l 136 500 q 124 792 124 754 q 125 797 124 794 q 131 800 126 799 q 140 801 135 801 q 152 801 144 801 q 166 801 160 801 q 184 801 172 801 q 204 801 196 801 q 336 792 336 801 q 325 503 336 751 q 311 247 314 254 q 229 242 310 242 q 149 247 149 242 m 206 221 q 228 224 219 224 q 303 199 268 224 q 347 99 347 164 q 336 43 347 65 q 229 -24 306 -24 q 122 44 154 -24 q 113 100 113 68 q 124 157 113 138 q 206 221 151 211 z "},"\"":{"ha":785,"x_min":35,"x_max":750,"o":"m 514 822 q 496 828 496 822 q 485 833 496 833 q 463 832 478 833 q 409 828 447 831 q 333 822 371 825 q 269 819 304 821 q 215 815 233 817 q 196 814 197 814 q 183 792 186 814 q 93 425 163 631 q 75 364 72 367 l 76 364 q 173 370 92 364 q 278 381 254 376 q 288 381 286 382 q 289 372 290 379 q 292 363 286 363 q 394 371 307 363 q 489 382 482 379 q 514 386 500 386 q 543 411 528 386 q 654 646 604 503 q 690 754 668 682 q 711 832 711 826 l 707 832 q 618 828 681 832 q 514 822 540 822 m 329 850 q 514 861 479 861 q 532 854 532 861 q 546 850 532 850 q 649 856 569 850 q 740 860 710 860 l 749 860 q 740 824 750 860 q 714 740 729 789 q 686 656 699 692 q 613 478 642 535 q 576 416 606 464 q 544 365 547 368 q 484 357 543 364 q 425 349 425 350 q 385 343 424 347 q 308 335 347 339 q 265 332 268 332 q 252 332 254 331 q 251 340 250 333 q 253 344 251 342 l 253 346 q 244 349 253 349 q 138 340 236 349 q 39 332 43 332 l 36 332 q 68 436 35 333 q 153 763 132 624 q 167 835 163 831 q 329 850 169 840 m 233 764 q 328 773 235 765 q 425 781 421 781 q 428 776 428 781 q 406 703 428 768 q 315 490 368 594 q 276 429 285 432 q 154 418 188 418 l 143 418 l 161 474 q 219 706 199 586 q 233 764 229 760 m 540 774 q 638 781 626 781 l 639 781 q 643 775 643 781 q 631 728 643 765 q 554 535 601 638 q 493 429 507 433 q 433 424 488 428 q 364 419 378 419 l 361 419 q 378 476 360 421 q 436 714 417 593 l 446 767 l 540 774 z "},"%":{"ha":1163,"x_min":36,"x_max":1128,"o":"m 381 221 q 300 67 381 219 q 219 -89 219 -85 q 340 -93 219 -93 l 461 -93 l 489 -42 q 546 64 526 29 q 578 122 575 119 l 581 119 q 587 108 583 115 q 593 92 590 100 q 664 -19 618 25 q 836 -89 738 -89 q 970 -50 907 -89 q 1067 58 1033 -11 q 1100 183 1094 115 q 1101 221 1101 196 q 1021 435 1101 354 q 844 506 950 506 l 825 506 q 808 505 818 506 q 793 504 797 504 l 779 506 q 851 642 779 507 q 933 797 929 789 l 944 817 l 696 817 l 650 729 q 603 639 603 640 l 603 633 l 601 631 q 597 623 600 628 q 593 615 594 618 l 585 601 l 572 639 q 546 699 558 678 q 404 807 497 779 q 324 817 369 817 q 269 811 297 817 q 146 742 199 796 q 72 614 93 688 q 61 517 61 578 q 89 372 61 429 q 324 222 157 222 l 339 222 q 381 221 381 225 m 278 839 q 311 840 285 840 q 394 835 371 840 q 518 771 469 819 q 575 696 556 733 l 589 671 l 596 683 q 642 768 611 708 l 681 842 l 833 842 q 982 836 982 842 q 903 682 982 828 q 824 533 824 536 q 851 532 824 532 q 1021 471 949 532 q 1118 307 1093 410 q 1128 214 1128 263 q 1118 122 1128 167 q 926 -101 1075 -47 q 836 -112 893 -112 q 772 -107 796 -112 q 588 42 651 -81 l 575 65 l 556 32 q 535 -8 553 25 q 508 -58 518 -40 l 478 -115 l 326 -115 q 175 -114 175 -115 q 232 -4 175 -111 q 336 193 336 190 q 307 197 336 197 q 149 253 218 197 q 47 407 79 310 q 36 514 36 439 q 40 592 36 569 q 60 656 43 614 q 278 839 119 806 m 726 763 q 824 767 731 767 q 857 765 851 767 q 858 764 858 765 q 765 588 858 758 q 666 399 736 532 q 451 -3 596 267 l 432 -40 l 300 -40 q 353 58 301 -36 q 631 582 621 560 q 682 683 643 608 q 726 763 721 757 m 353 621 q 325 632 342 632 q 272 532 276 632 l 272 513 q 314 407 272 421 q 328 404 322 404 q 356 421 343 404 q 374 517 374 444 q 353 621 374 599 m 263 757 q 328 764 282 764 q 389 758 368 764 q 538 525 538 713 q 415 294 538 354 q 318 271 365 271 q 174 333 232 271 q 110 515 110 401 q 150 670 110 606 q 263 757 190 735 m 853 321 q 825 322 839 328 q 789 215 789 307 q 814 110 789 139 q 840 97 824 97 q 867 108 858 97 q 888 175 882 129 q 890 214 890 200 q 853 321 890 304 m 807 456 q 835 457 815 457 q 949 429 901 457 q 989 394 967 418 q 1051 219 1051 329 l 1051 201 q 985 28 1044 90 q 838 -37 921 -37 q 708 8 763 -36 q 633 131 653 51 q 626 206 626 154 q 632 276 626 250 q 692 393 646 343 q 807 456 736 443 z "},"&":{"ha":1085,"x_min":36,"x_max":1047,"o":"m 535 881 q 449 892 508 890 l 422 892 q 365 888 386 892 q 174 739 231 857 q 147 621 147 685 q 167 514 147 567 l 176 490 l 151 465 q 92 381 115 426 q 64 250 64 325 q 74 163 64 192 q 215 -1 114 47 q 294 -31 263 -24 q 388 -37 326 -37 q 554 -8 486 -37 l 582 4 l 611 -29 q 801 -28 675 -28 q 992 -26 928 -28 l 956 14 q 799 196 799 186 q 807 214 799 200 q 874 367 846 272 q 910 539 890 422 l 913 556 l 803 556 q 696 561 696 556 q 702 600 696 569 q 708 647 708 631 q 703 704 708 683 q 643 813 689 767 q 535 881 597 860 m 390 918 q 436 921 421 921 q 652 842 571 921 q 733 642 733 763 l 733 624 l 731 579 l 940 579 l 940 571 q 926 485 940 557 q 903 379 913 413 q 847 233 883 304 l 828 196 l 867 151 q 894 120 874 144 q 938 72 915 96 q 976 28 960 47 q 1047 -51 1047 -50 l 1042 -51 q 1024 -51 1035 -51 q 997 -52 1013 -51 q 962 -53 982 -53 q 920 -53 942 -53 q 873 -53 899 -53 q 822 -53 847 -53 l 600 -53 l 574 -26 l 554 -36 q 388 -62 493 -62 q 290 -56 322 -62 q 215 -31 258 -50 q 83 84 131 10 q 36 250 36 158 q 46 332 36 293 q 118 465 64 404 l 146 499 l 136 529 q 122 621 122 572 q 189 810 122 729 q 390 918 263 900 m 364 317 q 344 333 350 333 q 322 289 332 333 q 321 274 321 283 q 347 213 321 239 q 411 186 372 186 q 435 189 418 186 q 461 197 461 194 q 438 230 461 201 q 389 287 414 258 q 364 317 364 315 m 454 675 q 433 685 444 685 q 399 649 406 685 l 399 639 q 422 571 399 597 l 433 579 q 465 644 465 604 q 454 675 465 665 m 392 842 q 426 844 411 844 q 518 832 481 844 q 619 763 579 813 q 658 644 658 714 q 557 464 658 539 q 524 436 524 440 q 528 429 524 433 q 535 420 529 428 q 552 401 542 413 q 571 379 563 389 q 614 335 608 335 q 618 339 617 335 q 638 393 624 347 q 657 467 651 439 l 664 503 l 757 503 q 851 497 851 503 q 840 443 851 496 q 751 222 811 308 q 735 193 735 199 q 826 83 735 186 q 875 24 875 26 q 756 19 875 19 l 636 19 l 590 69 l 567 56 q 431 13 514 22 q 388 10 400 10 q 226 51 297 10 q 128 161 156 92 q 111 247 111 203 q 140 365 111 308 q 221 458 169 421 q 231 466 225 463 q 239 472 236 469 l 243 474 l 242 475 q 240 480 242 476 q 238 487 239 483 q 233 496 236 490 q 228 506 229 501 q 197 622 197 565 q 251 765 197 704 q 392 842 304 826 z "},"'":{"ha":568,"x_min":36,"x_max":532,"o":"m 494 832 q 471 835 494 835 q 321 826 435 835 q 194 818 207 818 q 187 812 189 818 q 179 769 185 806 q 100 453 158 628 q 74 368 72 369 l 75 368 l 306 386 q 356 463 317 386 q 429 628 396 540 q 469 746 444 667 q 494 832 494 825 m 326 853 q 515 864 482 864 q 532 860 532 864 q 503 759 532 851 q 457 622 474 667 q 360 417 421 524 q 332 372 339 381 q 317 361 325 363 q 249 354 311 360 q 120 342 186 349 q 51 336 54 336 q 36 340 36 333 q 64 429 36 346 q 156 792 133 638 l 164 842 q 326 853 165 843 m 232 768 q 326 777 233 769 q 424 785 419 785 q 428 781 428 785 q 371 610 428 753 q 324 509 354 571 q 286 440 293 447 q 214 426 279 432 q 154 424 161 424 l 147 424 q 163 486 144 426 q 221 721 201 611 q 232 768 228 764 z "},"(":{"ha":518,"x_min":35,"x_max":479,"o":"m 472 836 q 471 838 472 836 q 335 876 469 839 q 196 914 200 914 q 160 844 189 914 q 40 293 40 574 q 57 92 40 192 q 97 -82 71 10 q 133 -174 124 -174 q 280 -149 140 -174 q 422 -122 419 -124 q 404 -60 425 -119 q 342 297 342 124 q 444 768 342 538 q 472 836 475 833 m 176 894 q 190 922 189 922 q 328 884 192 922 q 474 846 465 846 q 479 839 479 846 q 457 779 479 825 q 349 306 349 542 q 350 235 349 258 q 407 -49 357 97 q 429 -128 432 -125 q 283 -155 428 -129 q 128 -181 138 -181 q 101 -115 122 -181 q 35 290 35 90 q 54 519 35 411 q 176 894 89 701 m 213 819 q 228 846 225 846 q 315 822 238 846 q 393 793 393 799 q 374 749 393 790 q 282 293 282 538 q 332 -36 282 117 q 344 -78 344 -74 q 256 -97 344 -82 l 169 -111 l 158 -79 q 100 292 100 107 q 107 426 100 367 q 213 819 133 647 z "},")":{"ha":522,"x_min":36,"x_max":488,"o":"m 350 869 q 322 917 329 917 q 182 878 317 917 q 46 839 47 840 q 67 786 44 838 q 151 544 126 657 q 176 297 176 431 q 119 -46 176 126 q 99 -119 99 -106 q 242 -148 99 -124 q 393 -172 385 -172 q 443 -6 401 -172 q 479 294 479 147 q 350 869 479 575 m 181 886 q 326 925 317 925 q 361 858 332 925 q 488 296 488 575 q 417 -124 488 86 q 392 -181 397 -181 q 261 -158 385 -181 q 113 -135 169 -142 q 90 -128 90 -132 q 114 -44 90 -124 q 159 127 147 57 q 171 297 171 197 q 146 547 171 438 q 67 774 121 656 q 38 844 36 843 q 181 886 42 849 m 206 826 q 293 849 290 849 q 299 844 297 849 q 392 562 364 686 q 419 300 419 438 q 371 -50 419 115 q 354 -100 358 -92 q 343 -108 350 -108 q 254 -94 333 -108 q 175 -78 175 -81 q 188 -36 175 -74 q 228 142 208 25 q 236 294 236 196 q 226 465 236 406 q 136 774 204 625 q 125 803 124 801 l 206 826 z "},"+":{"ha":829,"x_min":32,"x_max":796,"o":"m 539 444 l 539 696 l 289 696 l 289 444 l 58 444 q 60 322 58 403 q 61 200 61 242 l 175 200 l 289 199 l 289 -51 l 413 -51 l 538 -50 l 539 74 l 539 199 l 653 200 l 767 200 q 768 323 767 242 q 769 444 769 404 l 539 444 m 265 474 l 265 724 l 564 724 l 564 474 l 792 474 l 794 328 q 796 194 796 271 l 796 178 q 678 175 793 175 l 564 175 l 564 -81 l 265 -81 l 265 175 l 150 175 l 115 175 q 44 177 57 175 q 32 189 32 179 l 32 197 q 33 219 32 199 q 33 275 33 240 q 33 342 33 310 l 35 474 l 265 474 m 342 396 l 342 647 l 486 647 l 486 396 l 603 396 l 719 394 l 719 324 l 721 251 q 605 250 682 250 q 489 249 528 250 q 488 123 489 207 q 486 -3 486 39 l 342 -3 q 340 123 342 39 q 339 249 339 207 q 223 250 300 250 q 107 251 146 250 l 107 396 l 342 396 z "},",":{"ha":572,"x_min":36,"x_max":538,"o":"m 499 222 q 494 226 499 226 q 208 207 261 207 l 189 207 l 186 188 q 104 -157 165 33 q 78 -244 78 -242 l 81 -244 q 197 -236 83 -244 q 319 -218 314 -226 q 438 29 383 -111 q 499 222 499 201 m 338 243 q 526 254 506 254 q 535 254 533 254 q 536 253 536 254 l 536 251 q 465 29 536 228 q 351 -217 419 -101 l 332 -251 l 185 -264 q 36 -276 40 -276 q 67 -178 36 -267 q 154 163 131 14 q 165 229 164 228 q 338 243 167 231 m 304 164 q 411 169 381 169 q 431 165 431 169 q 379 17 431 149 q 327 -99 367 -19 q 283 -179 288 -178 q 220 -185 278 -181 q 149 -190 163 -190 l 147 -190 q 165 -125 144 -187 q 221 101 206 4 q 225 129 222 115 q 229 150 228 143 l 231 158 l 304 164 z "},"-":{"ha":542,"x_min":31,"x_max":511,"o":"m 394 440 q 285 442 351 442 q 125 440 201 442 l 58 439 l 58 368 q 61 244 58 306 l 64 189 l 486 189 l 486 438 l 394 440 m 31 426 l 31 467 l 511 467 l 511 160 l 36 160 l 33 272 q 31 426 31 394 m 107 329 l 108 390 l 433 390 l 435 328 q 435 305 435 319 q 436 285 436 290 q 433 238 436 263 l 108 238 l 107 253 q 106 264 107 254 q 106 282 106 274 q 106 305 106 289 q 107 329 107 321 z "},".":{"ha":457,"x_min":35,"x_max":422,"o":"m 378 136 q 317 204 357 178 q 228 231 276 231 q 149 211 186 231 q 63 54 63 171 q 108 -69 63 -22 q 226 -117 153 -117 l 229 -117 q 367 -46 324 -114 q 393 49 393 -6 l 393 65 q 378 136 392 108 m 199 254 q 228 256 208 256 q 345 219 294 256 q 414 121 396 183 q 422 56 422 94 q 415 -4 422 21 q 347 -108 396 -71 q 228 -144 297 -144 q 108 -105 157 -144 q 40 6 58 -65 q 35 51 35 24 q 68 174 35 125 q 199 254 118 246 m 113 47 l 113 56 q 144 143 113 108 q 228 178 175 178 l 235 178 q 317 140 285 176 q 347 56 347 106 q 311 -37 347 1 q 228 -69 279 -69 q 147 -36 178 -69 q 113 47 115 -3 z "},"/":{"ha":671,"x_min":38,"x_max":633,"o":"m 469 861 q 343 858 343 861 q 276 622 343 856 q 142 149 210 389 q 69 -108 74 -92 q 197 -107 113 -108 q 324 -106 282 -106 l 360 17 q 561 726 492 482 q 597 858 597 849 q 469 861 597 861 m 324 882 q 481 889 326 889 q 633 886 633 889 q 454 253 633 881 l 344 -135 l 193 -136 q 38 -135 38 -136 q 178 371 38 -128 q 324 882 322 879 m 382 810 q 440 813 385 813 q 532 808 532 813 q 292 -39 532 806 l 286 -60 l 211 -60 q 138 -54 138 -60 q 258 378 138 -50 q 382 810 379 806 z "},":":{"ha":461,"x_min":36,"x_max":425,"o":"m 288 339 q 229 349 258 349 q 158 332 194 349 q 89 267 114 311 q 64 174 64 224 q 110 54 64 104 q 231 3 157 3 q 346 47 297 3 q 397 172 397 97 q 368 276 397 229 q 288 339 339 322 m 286 711 q 226 719 261 719 q 188 715 204 719 q 98 653 132 701 q 64 544 64 606 q 86 456 64 496 q 122 414 97 435 q 167 385 146 393 q 229 374 194 374 q 343 417 294 374 q 397 528 392 461 q 398 537 397 531 q 399 546 399 543 q 368 649 399 604 q 286 711 338 693 m 190 743 q 231 747 211 747 q 367 692 311 747 q 425 547 425 633 q 404 454 425 497 q 331 372 378 397 q 314 363 314 365 q 333 349 314 361 q 401 274 376 321 q 425 172 425 226 q 379 43 425 94 q 231 -24 322 -24 q 101 24 154 -24 q 38 150 49 71 q 36 175 36 158 q 62 274 36 226 q 128 346 88 322 q 149 360 149 358 q 122 379 149 361 q 36 543 36 435 q 60 642 36 592 q 190 743 101 725 m 189 664 q 231 671 213 671 q 339 601 308 671 q 349 543 349 581 q 340 493 349 511 q 283 433 324 454 q 231 424 264 424 q 122 493 154 424 q 114 544 114 511 q 124 603 114 583 q 189 664 146 650 m 197 296 q 225 299 208 299 q 282 290 267 299 q 347 175 347 257 q 338 117 347 136 q 231 53 307 53 q 122 122 154 53 q 114 172 114 142 q 124 229 114 208 q 197 296 146 281 z "},";":{"ha":590,"x_min":38,"x_max":551,"o":"m 514 356 q 515 361 515 358 q 504 364 515 364 q 340 353 503 364 q 193 339 197 343 q 188 313 190 332 q 100 -42 171 165 q 76 -119 76 -110 q 97 -125 76 -125 q 124 -121 115 -125 q 213 -110 131 -118 q 301 -101 296 -103 l 324 -99 l 346 -61 q 514 356 428 78 m 378 718 q 329 724 356 724 q 220 684 265 724 q 165 578 175 644 q 164 549 164 568 q 203 437 164 483 q 306 381 242 390 q 332 378 322 378 q 415 401 376 378 q 475 464 454 425 q 496 550 496 501 q 463 656 496 608 q 378 718 431 704 m 281 747 q 322 751 297 751 q 406 738 374 751 q 490 665 456 715 q 524 553 524 615 q 521 521 524 543 q 465 407 508 450 l 446 388 l 500 390 q 535 392 515 392 q 551 389 551 392 l 529 314 q 368 -76 458 85 q 344 -117 350 -110 q 329 -126 338 -125 q 198 -139 319 -128 q 67 -153 76 -150 q 46 -156 50 -156 q 38 -156 42 -157 q 69 -49 38 -144 q 157 292 132 142 q 167 356 167 353 q 172 367 168 365 q 200 371 176 369 l 229 374 l 197 404 q 150 470 163 439 q 138 553 138 501 q 193 696 138 640 q 281 747 232 735 m 281 665 q 328 675 299 675 q 385 663 361 675 q 440 594 425 640 q 446 550 446 578 q 438 497 446 517 q 333 428 406 428 q 245 461 278 428 q 213 551 213 494 q 281 665 213 633 m 236 294 q 333 303 238 296 q 435 311 428 311 q 446 308 446 311 q 422 232 446 303 q 389 140 399 161 q 336 26 350 54 q 299 -43 307 -32 q 239 -58 290 -54 q 211 -62 226 -60 q 183 -66 196 -64 q 167 -68 169 -68 l 146 -69 q 164 -7 144 -68 q 224 238 199 107 q 236 294 233 292 z "},"=":{"ha":654,"x_min":31,"x_max":624,"o":"m 596 376 l 596 626 l 54 626 l 54 376 l 68 376 q 450 375 97 375 l 558 375 l 596 376 m 31 349 l 31 656 l 624 656 l 624 349 l 31 349 m 119 425 l 119 578 l 531 578 l 531 425 l 119 425 m 596 17 l 596 271 l 54 271 q 56 145 56 229 q 57 19 56 61 q 327 18 147 19 q 596 17 507 17 m 31 -7 l 31 300 q 326 299 129 300 q 622 297 524 297 l 624 146 l 624 -7 l 31 -7 m 119 143 q 122 219 119 217 q 328 222 125 222 l 531 222 l 531 69 l 119 69 l 119 143 z "},"?":{"ha":675,"x_min":36,"x_max":639,"o":"m 100 807 q 68 782 68 786 q 99 678 68 779 q 115 625 106 657 q 130 574 124 593 q 138 549 136 556 q 150 522 144 522 q 196 551 154 522 q 260 589 238 582 q 294 594 276 594 q 307 592 307 594 q 258 519 307 585 q 189 394 207 453 q 179 286 181 371 q 169 192 178 208 q 150 106 150 154 q 176 10 150 50 q 318 -65 225 -65 q 432 -21 386 -65 q 483 103 483 26 l 483 115 q 474 171 482 150 q 467 257 467 186 l 467 290 q 476 346 467 328 q 514 397 485 361 q 589 506 568 461 q 613 608 610 551 l 613 625 q 528 806 613 742 q 322 871 443 871 q 100 807 203 871 m 249 892 q 313 896 274 896 l 342 896 q 438 883 397 894 q 584 790 529 856 q 639 621 639 724 q 615 503 638 556 q 536 385 592 451 q 498 329 506 349 q 489 264 490 310 l 489 240 q 499 182 489 208 q 513 106 513 144 q 450 -39 513 21 q 319 -92 393 -92 q 203 -54 254 -92 q 133 46 151 -17 q 125 108 125 74 q 139 186 125 157 q 151 282 151 214 q 172 422 151 369 q 240 539 192 474 q 247 554 253 554 l 219 536 q 163 498 190 517 q 133 481 135 479 q 88 623 132 482 q 38 789 44 764 l 36 790 q 36 793 36 792 q 56 810 36 799 q 74 821 67 817 q 249 892 167 875 m 254 814 q 324 819 276 819 q 401 814 378 819 q 522 747 478 799 q 565 625 565 696 q 565 616 565 622 q 564 607 564 610 q 543 524 561 561 q 481 435 525 488 q 428 358 440 386 q 415 285 415 329 l 415 247 l 231 247 q 226 293 226 263 q 232 358 226 332 q 303 494 244 415 q 356 594 356 563 q 293 643 356 643 q 196 613 240 643 l 175 599 l 151 676 q 128 760 128 758 q 169 787 128 769 q 254 814 210 804 m 282 228 q 322 229 288 229 q 375 217 356 228 q 435 107 435 183 q 429 67 435 85 q 371 -3 414 19 q 331 -14 349 -14 l 313 -14 q 203 83 219 -10 q 200 108 200 100 q 222 183 200 150 q 282 228 244 215 z "},"@":{"ha":1007,"x_min":35,"x_max":971,"o":"m 611 822 q 539 828 578 828 q 265 739 388 828 q 90 501 143 650 q 64 324 64 428 q 69 227 64 260 q 93 149 75 194 q 238 -38 139 32 q 481 -108 336 -108 q 713 -60 607 -108 q 734 -50 721 -56 q 753 -42 747 -44 l 760 -37 q 745 19 760 -33 q 725 83 731 71 q 731 89 724 85 q 749 97 738 93 q 933 315 888 143 q 943 425 943 351 q 932 539 943 497 q 815 729 900 654 q 611 822 729 804 m 454 847 q 525 853 490 853 q 660 839 607 853 q 858 724 778 807 q 963 522 938 640 q 971 425 971 482 q 963 328 971 369 q 785 85 924 151 l 757 71 q 789 -53 789 -44 q 728 -83 789 -58 q 642 -114 667 -107 q 485 -136 569 -136 q 350 -118 408 -136 q 119 44 204 -76 q 35 322 35 165 q 65 507 35 415 q 214 732 110 640 q 454 847 318 824 m 547 461 q 499 447 526 461 q 452 393 471 432 q 433 318 433 354 q 454 269 433 281 q 479 267 469 263 q 510 290 493 271 q 533 331 526 310 q 547 392 539 346 q 556 454 556 439 q 547 461 556 461 m 457 769 q 544 775 483 775 q 621 769 599 775 q 815 658 740 744 q 896 450 889 572 q 897 436 896 444 q 897 424 897 428 q 860 259 897 331 q 760 157 824 188 q 671 135 715 135 q 567 189 597 135 q 538 175 563 196 q 429 135 489 135 q 304 213 342 135 q 285 306 285 254 q 325 456 285 388 q 368 510 339 481 q 542 589 438 579 l 558 589 q 646 578 600 589 q 707 554 692 568 q 713 543 713 549 q 711 527 713 538 q 706 490 710 517 q 697 438 701 464 q 675 278 675 293 q 676 271 675 275 q 676 265 676 267 q 690 249 681 249 q 710 256 696 249 q 775 407 771 283 l 775 424 q 660 640 775 576 q 531 668 607 668 q 460 660 492 668 q 306 558 364 632 q 235 372 247 485 q 232 329 232 344 q 276 165 232 235 q 394 68 319 94 q 500 51 444 51 q 639 81 575 51 q 669 93 664 93 q 685 44 671 92 q 699 -7 699 -4 q 658 -28 699 -12 q 585 -50 618 -43 q 475 -58 547 -58 q 421 -56 449 -58 q 226 39 307 -37 q 121 226 144 115 q 111 322 111 271 q 176 569 111 460 q 457 769 269 728 z "},"A":{"ha":999,"x_min":40,"x_max":960,"o":"m 649 700 l 633 747 l 365 747 l 349 699 q 269 465 343 681 q 76 -104 76 -100 q 194 -108 76 -108 q 369 -103 364 -108 q 393 -32 374 -93 l 414 35 q 496 36 442 36 q 576 38 550 36 q 600 -34 585 14 q 624 -106 615 -82 l 771 -107 q 921 -106 919 -107 q 878 33 926 -100 q 797 266 854 101 q 699 553 740 431 q 649 700 657 675 m 321 699 q 346 774 344 772 q 500 775 347 775 l 651 774 l 690 658 q 844 211 776 413 q 900 47 869 136 q 945 -84 931 -42 q 960 -128 960 -126 l 935 -131 q 871 -132 914 -132 l 783 -132 l 604 -131 l 558 11 l 435 11 q 413 -60 428 -12 q 390 -132 397 -108 l 215 -132 q 40 -129 40 -132 q 51 -92 40 -122 q 134 149 72 -33 q 256 508 196 331 q 321 699 317 686 m 560 258 q 528 354 560 260 q 496 449 497 449 l 433 257 q 442 253 432 254 l 496 251 q 560 258 560 253 m 382 642 l 401 699 l 597 699 l 608 664 q 696 408 638 582 q 776 171 754 235 q 851 -53 851 -47 q 756 -56 851 -56 l 660 -56 q 614 90 635 15 l 381 90 l 361 31 q 335 -56 349 -14 l 239 -56 q 147 -50 147 -56 q 192 149 147 17 q 303 444 236 282 q 382 642 369 607 z "},"B":{"ha":832,"x_min":35,"x_max":793,"o":"m 549 726 q 293 736 511 735 l 225 736 q 64 733 67 736 q 63 607 63 685 q 63 472 63 574 q 64 306 64 369 l 67 -119 l 279 -119 q 495 -117 450 -119 q 583 -99 540 -114 q 687 -36 643 -79 q 750 64 731 7 q 768 171 768 117 q 718 326 768 267 l 706 342 l 721 372 q 744 488 744 421 q 615 703 744 642 q 549 726 588 715 m 38 679 l 35 761 l 283 760 q 505 757 468 758 q 565 749 542 756 q 744 610 693 713 q 771 486 771 557 q 744 363 771 415 l 736 346 l 751 322 q 793 169 793 258 q 789 118 793 143 q 708 -49 774 18 q 590 -122 660 -99 q 490 -141 543 -137 q 261 -144 438 -144 l 40 -144 l 40 226 q 38 679 40 590 m 489 239 q 379 246 464 246 l 289 246 l 289 213 q 293 136 289 207 l 294 93 l 376 93 q 473 97 447 93 q 513 113 499 100 q 535 172 535 131 l 535 182 q 489 239 533 228 m 483 518 q 379 524 468 524 l 289 524 l 289 407 l 376 407 q 470 410 447 407 q 506 428 493 414 q 521 468 521 443 q 507 504 521 490 q 483 518 497 514 m 114 544 l 111 685 l 321 683 q 506 681 476 682 q 557 672 536 679 q 694 506 682 631 q 695 496 694 503 q 696 486 696 489 q 647 354 696 406 q 632 336 632 339 l 649 324 q 708 236 692 296 q 715 171 715 215 q 704 83 715 115 q 586 -44 675 -7 q 502 -65 547 -61 q 301 -68 457 -68 l 117 -68 l 117 168 q 114 544 117 392 z "},"C":{"ha":881,"x_min":36,"x_max":849,"o":"m 531 761 q 443 769 485 769 q 181 660 286 769 q 69 431 97 572 q 63 322 63 400 q 69 213 63 244 q 336 -108 115 -42 q 451 -122 388 -122 q 519 -117 493 -122 q 697 -32 624 -97 q 799 132 769 33 q 813 207 804 151 q 821 281 821 263 q 679 283 821 283 l 539 283 q 536 261 538 276 q 532 233 535 246 q 512 174 526 193 q 467 147 497 154 q 444 144 450 144 q 370 195 394 144 q 346 318 346 246 q 350 376 346 350 q 385 470 361 440 q 450 500 408 500 l 458 500 q 521 467 501 496 q 539 378 532 449 q 679 376 539 376 l 821 376 l 821 388 q 811 460 821 407 q 794 532 801 513 q 693 684 763 624 q 531 761 624 744 m 376 790 q 438 794 401 794 q 557 782 508 794 q 724 690 654 757 q 825 528 794 624 q 840 447 831 510 q 849 364 849 385 l 849 353 l 517 353 l 510 401 q 492 463 504 450 q 450 476 478 476 q 418 468 431 476 q 372 318 372 436 q 418 178 372 200 q 449 172 429 172 q 479 178 468 172 q 510 257 501 189 q 517 308 515 307 q 682 313 521 313 q 744 313 706 313 q 830 311 813 313 q 847 303 847 310 q 831 154 847 231 q 729 -38 807 40 q 538 -140 651 -117 q 447 -147 510 -147 q 356 -140 383 -147 q 160 -31 240 -115 q 53 169 81 53 q 36 318 36 239 q 65 518 36 433 q 185 701 103 629 q 376 790 267 772 m 374 713 q 439 717 397 717 q 547 707 514 717 q 678 628 622 685 q 731 558 714 592 q 763 450 757 504 l 765 425 l 583 425 l 581 444 q 474 550 567 535 q 447 553 457 553 q 355 514 393 553 q 303 407 317 475 q 297 321 297 379 q 303 236 297 263 q 341 148 313 185 q 406 100 369 111 q 446 96 422 96 q 507 107 486 96 q 579 210 567 135 l 585 236 l 765 236 l 763 207 q 665 7 750 85 q 447 -74 581 -74 q 325 -53 383 -74 q 190 48 244 -24 q 118 221 136 119 q 113 319 113 249 q 117 407 113 375 q 201 610 135 531 q 374 713 268 690 z "},"D":{"ha":838,"x_min":32,"x_max":806,"o":"m 514 743 q 267 751 475 750 l 57 753 l 57 -97 l 258 -97 q 497 -89 457 -97 q 663 -1 592 -69 q 774 243 750 86 q 778 333 778 275 q 771 454 778 413 q 625 700 742 624 q 514 743 576 732 m 32 772 q 285 778 32 778 q 488 774 461 778 q 602 744 558 764 q 688 683 646 724 q 806 343 806 569 q 751 75 806 185 q 590 -85 696 -35 q 478 -119 532 -112 q 236 -125 425 -125 l 32 -125 l 32 772 m 456 538 q 414 543 443 543 q 322 540 411 543 l 286 539 l 286 326 l 288 115 l 433 115 l 460 128 q 547 343 547 171 q 456 538 547 507 m 104 -49 l 104 701 l 299 699 l 510 696 q 560 680 528 694 q 611 650 592 665 q 725 425 706 578 q 728 363 728 410 q 718 218 728 269 q 504 -37 676 11 q 289 -47 475 -46 l 104 -49 m 390 189 q 443 210 425 189 q 466 261 461 232 q 471 338 471 290 q 431 465 471 450 q 390 471 414 471 l 363 471 l 363 189 l 390 189 m 339 329 l 339 496 l 379 496 q 463 475 440 496 q 496 343 496 442 q 494 301 496 315 q 438 174 486 197 q 379 164 419 164 l 340 163 l 339 329 z "},"E":{"ha":776,"x_min":32,"x_max":744,"o":"m 703 619 l 703 739 l 382 740 l 60 740 l 60 314 q 67 -114 60 -111 q 390 -117 75 -117 q 714 -114 706 -117 q 721 13 721 -112 l 721 138 l 342 138 l 342 150 l 342 181 l 343 197 l 508 199 l 674 199 q 675 315 675 238 q 676 431 675 392 l 604 431 q 421 433 543 431 l 310 436 l 311 467 l 311 497 l 508 499 l 704 499 l 703 619 m 32 -140 l 32 765 l 728 765 l 728 475 l 533 475 q 365 474 392 475 q 338 468 338 474 q 362 462 338 463 q 518 458 386 461 q 701 451 697 456 q 703 311 703 450 l 703 175 l 535 174 q 367 169 367 174 q 556 165 367 165 l 744 165 l 744 -140 l 32 -140 m 108 -64 l 108 689 l 651 689 l 651 524 l 290 524 l 290 411 l 628 411 l 628 250 l 290 250 l 290 100 l 668 100 l 668 -64 l 108 -64 z "},"F":{"ha":744,"x_min":32,"x_max":713,"o":"m 685 507 l 685 744 l 56 744 q 57 319 56 603 q 58 -107 58 35 l 197 -108 l 338 -108 q 339 44 339 -57 q 340 196 339 146 l 490 196 l 640 197 q 639 315 639 238 q 638 433 639 393 l 472 433 l 306 435 q 307 469 306 446 q 308 506 308 493 l 496 507 l 685 507 m 333 479 l 333 458 l 500 458 l 667 457 l 667 171 l 517 169 l 367 169 l 367 -133 l 32 -133 l 32 774 q 371 772 144 772 q 710 771 597 772 q 711 628 711 724 q 713 483 711 532 q 514 479 685 479 l 333 479 m 108 319 l 108 696 l 636 696 l 636 532 l 290 532 l 290 407 l 592 407 l 592 246 l 290 246 q 289 94 289 194 q 288 -57 289 -7 l 113 -57 q 108 319 108 -57 z "},"G":{"ha":911,"x_min":36,"x_max":878,"o":"m 614 -85 q 617 -94 614 -89 q 619 -104 619 -100 l 731 -104 l 842 -103 l 843 143 q 847 390 846 389 q 849 397 849 390 q 835 503 849 436 q 744 668 815 600 q 568 760 674 736 q 457 768 533 768 q 393 764 417 768 q 150 617 238 735 q 63 319 63 499 q 156 13 63 133 q 415 -121 250 -107 q 458 -124 446 -124 q 594 -93 525 -124 l 614 -85 m 383 788 q 461 792 410 792 q 588 782 553 792 q 832 593 761 736 q 872 433 858 539 q 878 378 878 393 q 874 365 878 367 q 868 117 868 363 l 868 -129 l 724 -129 q 550 -137 579 -129 q 453 -147 511 -147 q 351 -137 394 -147 q 89 75 171 -93 q 36 324 36 183 q 82 554 36 454 q 383 788 174 747 m 503 269 q 506 346 503 332 l 792 346 l 792 -53 q 726 -51 769 -53 q 661 -50 682 -50 l 656 -22 q 651 7 651 0 q 625 -14 639 -1 q 472 -71 563 -67 l 449 -71 q 278 -28 351 -71 q 222 20 257 -15 q 172 78 186 56 q 122 206 138 136 q 113 319 113 246 q 121 425 113 386 q 224 626 144 550 q 421 717 303 703 q 474 719 439 719 q 649 676 574 719 q 761 563 725 633 q 792 458 789 508 l 793 440 l 613 440 l 610 458 q 539 543 601 511 q 475 557 513 557 q 356 508 397 557 q 307 411 325 474 q 299 322 299 381 q 306 238 299 272 q 433 96 332 117 q 469 93 443 93 q 539 103 518 93 q 608 178 582 124 l 622 207 l 563 210 l 504 211 l 503 269 m 503 478 q 475 483 490 483 q 393 428 419 483 q 375 322 375 388 q 406 196 375 228 q 421 182 417 182 q 429 300 429 182 l 429 418 l 475 419 q 535 429 533 425 l 535 436 q 503 478 532 465 m 443 504 q 469 507 451 507 q 547 475 522 507 q 563 417 561 458 l 564 397 q 508 396 544 397 q 453 394 472 394 l 453 144 l 440 147 q 350 317 350 164 l 350 340 q 443 504 357 483 z "},"H":{"ha":810,"x_min":32,"x_max":781,"o":"m 342 483 l 342 749 l 60 749 l 60 -104 l 342 -104 l 342 218 l 471 218 l 471 -104 l 753 -104 l 753 749 l 471 749 l 471 617 q 464 482 471 483 l 456 481 q 442 481 449 481 q 422 481 436 481 q 400 482 408 482 l 342 483 m 33 321 l 32 774 l 367 774 l 367 507 l 447 507 l 447 774 l 781 774 l 781 321 l 779 -131 q 613 -132 724 -131 q 447 -133 503 -133 l 447 193 l 367 193 l 367 -133 q 200 -132 311 -133 q 33 -131 89 -131 l 33 321 m 108 319 q 111 697 108 694 q 194 700 114 700 q 283 697 272 700 q 290 564 290 696 l 290 431 q 406 432 329 431 q 521 433 482 433 l 522 547 q 524 681 524 611 l 524 700 l 613 699 l 703 699 l 703 321 l 704 -57 l 524 -57 l 524 100 q 521 264 524 256 q 404 269 519 269 l 290 269 l 290 -57 l 108 -57 l 108 319 z "},"I":{"ha":396,"x_min":32,"x_max":367,"o":"m 339 -108 l 339 744 l 57 744 l 57 319 l 58 -107 l 199 -108 l 339 -108 m 32 -131 l 32 774 q 198 772 88 772 q 364 771 308 772 q 365 319 364 621 q 367 -133 367 18 q 199 -132 311 -133 q 32 -131 88 -131 m 107 692 q 200 696 108 696 l 290 696 q 289 318 289 569 q 288 -58 289 67 l 107 -58 l 106 314 q 107 692 106 689 z "},"J":{"ha":703,"x_min":36,"x_max":672,"o":"m 644 433 l 644 758 l 506 760 q 367 757 369 760 q 363 551 363 753 l 363 349 l 214 349 q 64 346 64 349 q 63 278 64 314 l 63 246 q 91 37 63 111 q 186 -78 119 -37 q 350 -115 249 -115 l 374 -115 q 613 21 546 -110 q 641 117 638 71 q 644 433 644 164 m 339 372 l 339 785 q 506 783 394 783 q 672 782 617 783 l 672 456 q 669 140 672 193 q 651 44 667 88 q 578 -66 629 -19 q 463 -131 528 -112 q 358 -143 415 -143 q 192 -110 261 -143 q 61 43 97 -64 q 36 269 36 118 l 36 372 l 339 372 m 414 703 q 507 707 415 707 l 597 707 l 596 413 q 592 125 594 167 q 569 43 589 83 q 432 -60 531 -36 q 358 -65 411 -65 q 271 -58 299 -65 q 176 -6 210 -42 q 125 94 142 29 q 114 213 115 131 l 113 296 l 286 296 l 286 261 q 303 122 286 153 q 354 94 318 94 q 401 114 386 94 q 408 158 407 119 q 411 410 410 197 q 414 703 411 697 z "},"K":{"ha":975,"x_min":32,"x_max":936,"o":"m 875 756 q 806 758 876 757 q 660 758 736 758 q 525 757 543 758 l 504 756 q 344 578 450 697 q 343 667 344 608 q 342 756 342 726 l 60 756 l 60 385 q 63 -42 60 19 l 65 -96 l 203 -96 l 340 -94 l 342 33 l 344 160 q 513 -96 424 42 l 690 -96 q 840 -95 813 -96 q 865 -90 867 -94 l 538 393 l 560 417 q 624 486 582 440 q 706 575 665 532 q 788 663 744 617 q 853 733 832 710 l 875 756 m 532 785 q 767 786 576 786 q 936 785 936 786 q 753 588 936 782 q 569 386 569 393 q 650 268 569 382 q 821 24 669 239 q 867 -42 842 -7 q 904 -96 892 -78 q 917 -115 917 -114 q 710 -121 917 -121 l 497 -121 q 368 75 435 -21 l 368 -22 l 367 -121 l 36 -121 l 33 26 q 32 325 32 83 l 32 478 l 33 782 q 200 783 89 783 q 367 785 311 783 l 368 714 l 368 643 q 493 783 410 689 l 532 785 m 522 706 q 644 711 526 711 q 760 706 764 711 q 626 564 760 704 q 472 394 472 400 q 753 -12 472 389 l 775 -43 l 538 -43 l 440 106 q 339 256 342 256 q 313 232 336 256 l 290 207 l 290 -43 l 108 -43 l 108 707 l 290 707 l 290 576 q 293 446 290 446 q 364 522 297 446 q 403 567 378 538 q 447 617 428 596 q 475 650 465 639 l 522 706 z "},"L":{"ha":721,"x_min":32,"x_max":689,"o":"m 338 171 l 338 760 l 60 760 l 58 393 q 58 247 58 340 q 57 117 57 153 q 58 18 57 69 q 58 -35 58 -33 l 60 -96 l 665 -96 q 664 37 664 -51 q 663 168 664 125 q 500 169 608 169 q 338 171 392 169 m 33 783 q 119 788 36 788 l 200 788 l 364 786 q 365 490 364 688 q 367 194 367 293 l 689 194 l 689 36 l 688 -122 l 33 -122 l 32 328 q 33 783 32 781 m 107 689 l 108 711 l 290 711 l 290 415 l 292 119 l 451 118 q 614 113 611 117 q 618 68 618 108 q 613 -47 618 -8 l 108 -47 l 107 308 q 106 449 107 361 q 106 567 106 536 q 106 626 106 597 q 106 672 106 656 l 107 689 z "},"M":{"ha":921,"x_min":32,"x_max":892,"o":"m 532 747 q 464 449 465 449 q 456 476 463 449 q 441 542 450 503 q 424 619 432 581 q 409 687 415 658 q 403 717 403 715 l 394 751 l 228 751 q 58 750 60 751 q 56 328 56 744 q 58 -97 56 -89 q 464 -104 61 -104 l 868 -104 l 868 751 l 700 751 q 532 747 533 751 m 32 -128 l 32 781 l 411 781 q 440 665 419 760 q 463 567 461 568 l 464 565 q 488 665 467 565 q 517 781 508 760 l 892 781 l 892 -128 l 32 -128 m 108 -51 l 108 703 l 232 703 q 356 701 356 703 q 426 374 356 690 q 464 214 463 215 l 465 218 q 469 231 467 222 q 475 251 472 240 q 481 278 478 263 q 488 308 485 293 q 526 482 500 368 q 560 636 551 596 q 566 667 563 651 q 572 692 569 683 l 574 701 q 694 703 574 703 l 815 701 q 817 324 817 575 q 818 -51 817 74 l 732 -51 q 646 -46 646 -51 l 646 164 q 643 368 646 368 l 550 -44 q 461 -51 549 -51 q 375 -49 375 -51 q 335 147 375 -46 q 289 364 294 340 l 288 369 q 283 168 283 369 l 282 -51 l 108 -51 z "},"N":{"ha":815,"x_min":32,"x_max":786,"o":"m 401 607 l 321 754 l 189 756 l 56 756 l 56 -100 l 331 -100 l 331 53 q 333 207 331 207 q 421 53 338 207 l 506 -100 l 758 -100 l 758 756 l 622 756 l 486 754 l 485 614 l 483 468 q 401 607 478 468 m 35 781 q 183 785 39 785 q 336 778 331 785 q 369 719 343 767 q 450 574 442 589 l 458 560 l 460 671 l 463 782 l 621 783 q 783 781 782 783 q 786 326 786 775 l 786 -125 l 489 -125 q 361 110 447 -46 q 360 -8 361 71 q 358 -125 358 -86 l 32 -125 l 32 326 q 35 781 32 778 m 108 -51 l 108 707 l 289 707 l 340 615 q 460 396 406 493 q 533 267 531 267 q 536 488 536 267 l 536 707 l 622 707 l 708 706 l 708 -50 l 535 -50 l 464 79 q 390 215 422 156 q 325 332 357 274 l 285 406 l 282 178 l 281 -50 l 194 -51 l 108 -51 z "},"O":{"ha":921,"x_min":36,"x_max":889,"o":"m 536 782 q 461 788 508 788 q 396 783 422 788 q 172 665 258 763 q 67 424 86 568 q 63 339 63 394 q 67 253 63 282 q 167 19 86 114 q 371 -97 249 -75 q 465 -106 419 -106 q 710 -26 607 -106 q 847 193 813 53 q 864 338 864 258 q 847 482 864 419 q 735 685 815 607 q 536 782 654 764 m 393 810 q 461 813 404 813 q 560 804 524 813 q 799 649 708 774 q 889 340 889 524 l 889 314 q 878 208 888 247 q 771 -6 850 79 q 572 -121 692 -90 q 461 -131 536 -131 q 346 -119 388 -131 q 145 5 224 -86 q 43 231 67 96 q 36 338 36 264 q 43 447 36 413 q 160 690 68 592 q 393 810 253 788 m 631 322 l 631 340 q 478 571 631 553 q 469 572 475 571 q 460 572 463 572 q 359 533 400 572 q 301 422 318 494 q 293 339 293 392 q 303 246 293 285 q 393 124 328 156 q 461 113 417 113 q 531 122 510 113 q 618 229 592 151 q 631 322 629 258 m 411 736 q 464 740 439 740 q 672 673 583 740 q 794 489 761 606 q 813 354 813 426 q 812 335 813 349 q 811 314 811 322 q 799 204 810 247 q 626 -21 758 43 q 478 -54 564 -51 q 457 -55 469 -54 q 440 -56 444 -56 q 381 -49 418 -56 q 200 58 271 -26 q 115 268 129 143 q 111 339 111 306 q 192 610 111 501 q 411 736 272 718 m 488 493 q 461 497 472 497 q 394 453 417 497 q 371 342 371 410 q 394 222 371 260 q 464 185 417 185 q 526 213 504 185 q 554 300 547 240 q 557 340 557 328 q 538 441 557 399 q 488 493 518 483 m 388 490 q 464 521 414 521 q 540 489 514 521 q 581 342 581 442 l 581 319 q 464 158 572 158 q 456 159 461 158 q 449 160 451 160 q 344 333 344 168 q 388 490 344 443 z "},"P":{"ha":783,"x_min":32,"x_max":750,"o":"m 515 757 q 272 767 483 765 l 178 767 q 58 765 60 767 q 56 338 56 763 l 56 -87 l 339 -87 l 339 165 l 408 168 q 528 183 483 171 q 615 225 574 194 q 694 322 664 260 q 724 478 724 383 q 713 571 724 536 q 515 757 671 718 m 32 -117 l 32 793 l 264 792 q 526 781 489 790 q 743 556 707 729 q 750 475 750 518 q 739 368 750 413 q 661 231 717 286 q 522 154 606 176 q 429 143 482 144 l 367 140 l 367 14 l 365 -114 q 199 -115 310 -114 q 32 -117 88 -117 m 440 550 q 358 554 415 554 l 290 554 l 290 379 l 364 381 q 431 383 419 382 q 457 393 443 385 q 492 468 492 414 q 486 511 492 497 q 440 550 474 540 m 113 715 q 214 717 114 717 l 293 717 q 504 707 468 715 q 624 638 579 689 q 674 508 668 586 q 675 471 675 496 q 508 228 675 276 q 389 219 482 221 l 292 217 l 292 89 l 290 -39 l 200 -39 q 108 -35 110 -39 q 107 125 107 -32 q 113 715 107 713 m 415 475 q 389 481 413 478 l 367 482 l 367 469 q 372 456 367 458 q 396 456 378 454 q 418 468 418 457 l 415 475 m 339 429 l 339 506 l 375 506 q 432 499 419 506 q 444 468 444 492 q 429 438 444 446 q 372 429 414 429 l 339 429 z "},"Q":{"ha":967,"x_min":36,"x_max":928,"o":"m 579 778 q 472 790 543 789 l 439 790 q 375 786 396 790 q 175 675 256 761 q 69 460 94 589 q 60 343 60 417 q 65 256 60 288 q 72 222 69 232 q 78 201 74 213 q 86 176 82 190 q 139 63 101 119 q 444 -99 246 -92 q 463 -99 451 -99 q 478 -100 474 -100 q 593 -81 529 -100 l 629 -71 l 676 -115 q 726 -161 725 -161 q 758 -128 728 -161 q 779 -104 765 -119 q 812 -69 793 -89 q 840 -37 831 -49 l 892 18 q 811 100 864 44 l 825 135 q 864 336 864 235 q 863 352 864 342 q 863 368 863 363 q 751 671 857 557 q 579 778 685 746 m 401 817 q 458 819 421 819 q 658 773 567 819 q 801 650 749 726 q 888 343 888 526 q 853 133 888 224 l 842 106 q 928 19 883 61 l 849 -68 q 726 -197 731 -197 q 672 -149 724 -197 l 622 -100 l 603 -107 q 464 -125 543 -125 q 247 -72 340 -125 q 128 36 179 -33 q 57 189 78 106 q 42 239 49 224 q 36 322 39 244 l 36 360 q 42 443 36 410 q 117 643 58 557 q 163 699 132 667 q 217 746 193 731 q 401 817 296 803 m 422 574 q 301 438 331 550 q 292 343 292 399 q 301 250 292 289 q 449 115 338 122 q 492 117 478 113 q 494 125 500 121 l 483 135 q 464 153 464 151 q 510 208 464 158 q 563 257 557 257 q 583 241 564 257 q 610 225 603 225 q 613 226 613 225 q 626 351 626 249 q 619 440 626 417 q 463 578 581 578 q 422 574 443 578 m 389 738 q 454 742 414 742 q 567 729 525 742 q 769 556 704 690 q 814 344 814 463 q 761 115 814 210 l 747 92 l 783 56 q 819 15 819 19 q 800 -8 819 11 q 751 -61 797 -11 l 724 -92 q 681 -52 708 -79 q 638 -11 653 -25 l 613 -21 q 458 -51 543 -51 q 340 -33 393 -51 q 265 7 313 -24 q 194 75 232 29 q 142 158 157 121 q 110 338 110 235 q 113 389 110 356 q 197 624 125 533 q 389 738 268 714 m 493 496 q 461 501 482 501 q 424 494 438 501 q 376 425 392 476 q 368 336 368 400 q 375 263 368 288 q 390 228 381 244 q 406 213 400 213 q 482 289 414 213 l 554 368 l 551 392 q 531 458 547 429 q 493 496 515 488 m 410 515 q 463 526 432 526 q 503 519 486 526 q 571 426 551 500 q 581 325 581 393 q 579 311 581 311 l 576 313 q 570 317 574 314 q 564 321 567 319 l 551 331 l 540 315 q 469 238 533 307 q 406 179 415 179 q 382 200 400 179 q 343 336 343 246 q 344 349 343 340 q 344 364 344 358 q 410 515 351 483 z "},"R":{"ha":831,"x_min":32,"x_max":797,"o":"m 569 738 q 515 746 549 744 q 299 749 481 747 l 56 749 l 56 -104 l 338 -104 q 339 35 339 -58 q 340 175 339 128 l 390 176 q 449 175 444 176 q 459 131 458 174 q 465 27 460 89 q 489 -72 469 -35 l 503 -100 l 638 -100 l 771 -99 l 772 -33 l 772 32 l 757 40 l 742 47 l 739 129 q 713 285 736 239 l 701 308 l 718 333 q 747 393 738 364 q 758 483 758 425 q 753 556 758 533 q 569 738 715 689 m 32 -129 l 32 778 l 281 776 q 564 765 525 775 q 697 694 640 744 q 774 575 753 643 q 783 481 783 544 q 771 385 783 422 q 746 329 754 342 l 732 306 l 742 281 q 764 140 761 236 l 767 67 q 782 58 771 64 q 797 50 793 53 l 797 -125 l 488 -125 l 472 -97 q 450 -49 457 -69 q 435 113 435 -3 l 435 153 l 367 153 l 367 -129 l 32 -129 m 493 529 q 383 539 476 538 l 290 540 l 290 386 l 383 388 q 493 397 478 389 q 529 463 529 415 q 493 529 529 511 m 111 -54 q 110 324 111 71 q 108 701 108 576 l 317 700 q 522 694 486 699 q 600 669 558 690 q 710 483 710 613 q 649 331 710 383 l 629 313 l 644 296 q 681 230 675 261 q 690 113 688 199 q 697 21 693 40 q 710 7 700 13 q 721 -24 721 3 l 721 -49 l 532 -49 q 511 99 514 0 q 506 185 510 167 q 486 214 501 204 q 360 229 464 229 l 290 229 q 289 88 289 182 q 288 -54 289 -7 l 111 -54 m 340 440 q 339 464 339 447 q 338 488 339 481 l 399 488 q 468 484 457 488 q 479 464 479 481 q 471 443 479 447 q 401 440 467 440 l 340 440 z "},"S":{"ha":832,"x_min":39,"x_max":799,"o":"m 521 757 q 397 768 481 768 q 349 765 374 768 q 111 608 176 738 q 88 547 93 572 q 82 474 82 522 q 92 385 82 414 q 167 278 114 318 q 176 254 201 253 l 65 254 l 67 215 q 91 72 71 125 q 157 -28 111 18 q 375 -121 240 -110 q 425 -124 408 -124 q 636 -71 544 -124 q 760 74 728 -18 q 771 168 771 104 q 761 263 771 232 q 679 379 740 332 q 665 393 665 390 q 685 396 665 396 l 717 396 q 757 399 751 396 q 760 411 760 400 q 757 456 760 433 q 693 646 747 572 q 521 757 631 728 m 318 786 q 407 793 353 793 q 529 782 488 793 q 685 692 619 758 q 772 533 750 626 q 789 385 789 453 q 789 378 789 382 l 788 375 q 758 371 786 371 q 732 369 732 371 q 747 347 732 368 q 789 256 774 311 q 799 164 799 222 q 790 83 799 114 q 715 -44 771 11 q 578 -126 660 -99 q 425 -149 511 -149 q 243 -117 324 -149 q 137 -45 185 -93 q 67 61 89 3 q 42 215 46 119 l 39 282 q 80 283 53 283 q 121 285 107 283 l 106 301 q 63 397 75 340 q 54 482 54 439 q 60 542 54 521 q 147 700 79 636 q 318 786 215 764 m 378 718 q 389 719 381 718 q 403 719 397 719 q 419 719 408 719 q 435 718 429 718 q 631 639 557 713 q 707 472 696 574 l 710 447 l 619 449 l 529 449 l 526 469 q 494 529 522 504 q 401 557 463 557 q 317 526 339 557 q 304 488 304 508 q 307 469 304 475 q 341 442 314 453 q 451 411 368 431 q 640 344 586 378 q 714 249 693 311 q 724 172 724 214 q 713 92 724 122 q 533 -61 672 -24 q 422 -69 506 -69 q 324 -64 356 -69 q 254 -39 293 -58 q 118 179 135 21 l 115 206 l 293 206 l 294 182 q 353 100 300 124 q 426 92 371 92 q 478 93 467 92 q 508 104 489 94 q 540 126 532 115 q 547 157 547 138 q 524 201 547 188 q 411 238 501 214 q 182 332 239 281 q 129 471 129 378 q 135 525 129 501 q 261 686 156 636 q 378 718 311 711 m 356 503 q 407 507 372 507 q 475 475 458 506 q 482 457 483 458 l 481 457 q 410 474 469 457 q 340 496 350 490 l 350 501 q 356 503 353 501 m 346 186 q 349 201 346 201 q 418 184 354 201 q 493 163 482 167 l 510 156 l 496 150 q 422 138 469 138 q 346 186 346 138 z "},"T":{"ha":794,"x_min":36,"x_max":763,"o":"m 736 492 l 736 757 l 64 757 l 64 492 l 257 492 q 258 199 258 393 q 260 -94 258 4 q 400 -96 307 -94 q 539 -97 493 -97 q 540 196 539 0 q 542 489 542 392 q 639 490 575 489 q 736 492 703 492 m 36 625 l 36 781 l 760 781 l 761 722 q 762 691 761 715 q 763 651 763 667 q 762 608 763 638 q 761 565 761 579 l 760 467 l 568 467 l 568 -125 l 233 -125 l 233 168 q 233 422 233 382 q 226 464 232 463 l 222 464 q 213 464 219 464 q 199 465 207 464 q 182 465 192 465 q 163 465 172 465 l 99 465 l 43 465 q 36 625 36 469 m 114 703 q 296 708 117 708 l 401 708 l 686 707 l 686 542 q 588 540 653 542 q 492 539 524 539 l 492 -49 l 310 -49 l 310 539 q 213 540 278 539 q 115 542 147 542 l 114 619 l 114 689 l 114 703 z "},"U":{"ha":810,"x_min":33,"x_max":779,"o":"m 340 539 l 340 760 l 203 760 q 63 753 65 760 q 60 465 60 744 q 67 147 60 182 q 289 -103 106 -51 q 406 -112 321 -112 q 526 -103 489 -112 q 738 107 699 -60 q 754 406 754 175 l 754 496 l 753 757 l 471 757 l 468 469 q 465 205 467 243 q 449 160 463 167 q 410 154 438 154 q 369 160 383 154 q 351 178 360 164 q 340 539 340 200 m 35 475 l 33 783 l 368 783 l 368 496 q 369 233 368 278 q 381 182 371 188 q 403 179 386 179 q 436 183 431 179 q 443 485 442 186 l 444 783 l 779 783 l 779 490 q 774 164 779 206 q 736 26 763 85 q 682 -46 718 -10 q 610 -100 646 -82 q 411 -143 519 -143 q 396 -142 406 -143 q 381 -142 386 -142 q 176 -80 258 -136 q 60 75 93 -24 q 39 178 42 129 q 35 475 36 226 m 111 436 l 110 707 l 292 707 l 292 463 q 296 193 292 217 q 404 104 311 104 l 419 104 q 481 120 460 107 q 511 164 501 133 q 519 446 518 185 l 521 707 l 703 707 l 701 431 q 690 121 700 158 q 628 5 671 47 q 514 -56 586 -37 q 406 -64 483 -64 q 303 -56 333 -64 q 121 131 160 -17 q 111 436 113 164 z "},"V":{"ha":939,"x_min":40,"x_max":900,"o":"m 375 750 q 224 753 374 753 q 75 750 75 753 q 97 681 75 744 q 331 -35 314 19 l 351 -99 l 471 -100 l 590 -100 l 596 -82 q 610 -39 597 -78 q 647 74 622 0 q 692 211 672 149 q 864 749 864 738 q 718 753 864 753 l 572 753 l 524 578 q 474 406 475 406 l 472 408 q 469 419 471 413 q 465 429 467 425 q 375 750 382 735 m 40 772 q 217 776 40 776 l 396 776 l 424 675 q 474 501 471 501 l 475 501 q 513 638 476 504 q 550 775 550 772 q 725 776 550 776 q 900 772 900 776 q 858 640 900 763 q 733 256 821 528 q 611 -119 646 -17 l 607 -129 l 333 -129 l 315 -69 q 63 703 132 481 q 52 735 58 718 q 43 762 46 753 q 40 772 40 771 m 144 703 q 238 704 144 704 q 336 700 333 704 q 372 576 339 697 q 439 337 406 456 q 474 218 472 218 q 542 460 476 218 q 617 703 608 701 q 711 704 621 704 l 753 704 q 796 693 796 704 q 783 654 796 689 q 564 -21 756 574 l 554 -53 q 472 -51 526 -53 q 389 -50 417 -50 l 356 53 q 144 703 144 694 z "},"W":{"ha":1201,"x_min":40,"x_max":1163,"o":"m 785 519 l 736 753 l 604 753 q 469 750 472 753 q 422 518 426 518 q 394 633 419 518 l 368 751 l 222 751 q 167 752 197 751 q 128 753 136 753 q 76 746 76 753 q 188 321 76 736 q 301 -97 299 -94 q 492 -104 308 -104 q 536 -103 531 -104 l 550 -100 l 574 24 q 600 153 597 153 q 628 29 603 153 q 657 -101 653 -100 q 708 -103 658 -103 q 900 -99 896 -103 q 1015 324 901 -97 q 1128 749 1128 744 q 983 753 1128 753 l 838 753 l 832 726 q 785 519 790 519 m 40 775 q 215 776 40 776 l 389 776 l 403 717 q 418 647 415 654 l 419 646 q 435 708 424 646 l 447 776 l 603 776 l 758 775 l 771 710 q 786 643 785 643 q 804 710 789 643 l 819 776 l 843 776 l 992 776 l 1163 775 l 1083 481 q 961 29 1024 258 l 919 -129 l 633 -129 l 621 -64 q 606 14 614 -28 q 601 21 603 21 q 583 -57 597 21 l 569 -129 l 426 -129 q 281 -122 282 -129 q 76 636 119 468 q 58 703 68 665 q 44 758 49 740 l 40 775 m 140 694 q 235 700 140 700 l 328 700 l 338 660 q 375 491 361 553 q 401 371 389 429 q 420 288 414 313 q 426 264 426 263 q 469 479 429 267 q 511 696 510 692 q 604 700 513 700 l 696 700 l 715 594 q 736 491 719 571 q 758 378 753 411 q 781 265 779 265 l 876 693 q 971 700 878 700 q 1063 699 1063 700 q 1001 467 1063 689 q 906 111 938 236 q 868 -32 871 -19 l 863 -50 l 694 -50 l 649 186 q 600 419 603 419 q 576 306 597 419 q 510 -43 514 -29 q 497 -51 508 -50 q 424 -53 486 -53 l 340 -53 l 329 -14 q 167 592 300 99 q 140 694 140 692 z "},"X":{"ha":1025,"x_min":40,"x_max":988,"o":"m 475 669 l 436 743 l 271 744 q 104 743 104 744 q 147 668 104 742 q 244 503 190 594 q 321 372 297 411 q 347 324 347 328 q 303 247 347 317 q 89 -106 89 -100 q 254 -108 89 -108 l 421 -107 l 467 -24 q 515 57 513 57 l 564 -26 l 608 -108 l 776 -108 q 828 -108 803 -108 q 874 -108 854 -108 q 910 -107 894 -107 q 933 -106 925 -107 l 940 -106 q 809 115 938 -103 q 681 333 681 332 q 899 694 681 344 q 926 742 926 740 q 763 744 926 744 l 597 743 l 558 669 q 515 596 518 596 q 475 669 513 596 m 60 769 q 254 774 60 774 l 449 774 l 481 713 q 517 653 514 653 l 553 714 l 585 774 l 776 774 q 971 771 968 774 q 764 425 974 764 l 708 333 l 846 104 q 986 -129 986 -128 q 962 -131 988 -131 q 889 -133 936 -132 q 790 -133 842 -133 l 593 -133 l 554 -62 q 513 3 519 3 q 510 1 511 3 q 491 -33 510 0 q 454 -97 472 -65 q 433 -131 436 -129 q 235 -132 431 -132 l 40 -131 l 179 94 q 317 326 317 318 q 260 428 317 332 q 60 769 60 767 m 298 513 q 245 601 298 513 q 193 693 193 689 q 278 697 193 697 q 406 692 400 697 q 515 492 514 492 q 574 594 518 492 l 629 696 l 733 696 q 838 693 838 696 q 715 490 838 692 l 619 333 l 736 140 q 850 -57 850 -51 q 743 -60 850 -60 l 638 -58 l 578 51 q 515 163 517 161 l 483 107 q 418 -4 450 51 l 386 -60 l 282 -60 q 178 -57 178 -60 q 290 128 178 -54 q 403 318 403 310 q 298 513 403 336 z "},"Y":{"ha":1001,"x_min":40,"x_max":963,"o":"m 371 -97 q 519 -100 389 -100 l 650 -99 q 651 65 650 -44 q 653 228 653 174 l 788 489 q 917 754 917 743 q 760 757 917 757 q 601 751 606 757 l 513 551 q 501 570 511 550 q 476 619 490 590 q 449 678 463 649 q 426 728 436 707 l 417 749 l 411 757 l 253 757 q 90 754 96 757 q 99 728 85 753 q 114 701 103 722 q 143 646 125 681 q 175 586 161 611 q 304 344 256 438 l 371 219 l 371 -97 m 47 768 l 40 781 l 236 781 l 431 779 l 471 696 q 511 615 508 615 q 531 656 514 615 q 548 695 535 665 q 567 738 561 725 l 585 781 l 774 781 q 963 776 963 781 q 715 292 963 769 l 676 218 l 676 -125 l 343 -125 l 343 218 l 268 357 q 197 492 249 393 q 124 626 144 590 q 88 692 107 657 q 59 746 69 726 q 47 768 49 765 m 169 701 q 276 704 169 704 l 383 704 l 394 679 q 406 653 397 674 q 430 602 415 633 q 456 546 444 571 q 510 432 507 435 l 511 432 q 574 565 517 432 l 635 704 l 843 704 l 807 635 q 753 530 797 615 q 685 400 708 444 l 600 235 l 600 -49 l 419 -49 l 419 236 l 294 467 l 169 701 z "},"Z":{"ha":799,"x_min":36,"x_max":767,"o":"m 621 757 q 453 758 564 758 q 181 757 308 758 l 76 756 l 76 493 l 210 493 q 344 490 344 493 q 306 435 344 488 q 220 324 267 383 q 134 213 174 264 q 94 161 94 163 l 64 121 q 65 10 64 83 q 67 -99 67 -62 l 740 -99 l 740 164 l 601 165 q 457 168 457 165 q 519 258 457 176 q 665 447 639 414 l 743 547 l 743 754 l 621 757 m 49 779 q 417 783 74 783 l 767 785 l 767 536 q 635 367 722 479 q 506 197 549 254 q 635 196 549 197 q 767 194 722 194 l 767 -125 l 36 -125 l 36 128 q 296 463 171 303 l 174 465 l 50 467 l 49 624 l 49 779 m 125 542 l 125 707 l 694 707 l 694 565 l 522 344 q 351 119 351 124 q 521 118 351 118 l 690 118 l 690 -47 l 113 -47 l 113 103 l 279 318 q 447 538 447 535 q 288 542 450 542 l 125 542 z "},"":{"ha":292,"x_min":0,"x_max":0,"o":""}}}
